<?xml version="1.0" standalone="no"?>
<!DOCTYPE svg PUBLIC "-//W3C//DTD SVG 20010904//EN"
 "http://www.w3.org/TR/2001/REC-SVG-20010904/DTD/svg10.dtd">
<svg version="1.0" xmlns="http://www.w3.org/2000/svg"
 width="1001.000000pt" height="1001.000000pt" viewBox="0 0 1001.000000 1001.000000"
 preserveAspectRatio="xMidYMid meet">
<metadata>
Created by potrace 1.14, written by Peter Selinger 2001-2017
</metadata>
<g transform="translate(0.000000,1001.000000) scale(0.100000,-0.100000)"
fill="#000000" stroke="none">
<path d="M4749 9746 c-2 -2 -51 -6 -109 -10 -58 -3 -121 -8 -140 -11 -19 -2
-60 -6 -90 -9 -30 -4 -66 -8 -80 -10 -14 -3 -47 -7 -75 -11 -51 -6 -167 -26
-265 -45 -55 -10 -135 -29 -245 -56 -33 -8 -69 -17 -80 -19 -82 -18 -365 -112
-520 -172 -356 -138 -656 -293 -965 -498 -131 -87 -363 -255 -380 -274 -3 -4
-30 -26 -60 -51 -30 -25 -60 -49 -66 -55 -134 -119 -185 -166 -269 -251 -118
-118 -180 -185 -255 -274 -30 -36 -57 -67 -60 -70 -7 -7 -68 -84 -128 -161
-43 -57 -232 -333 -269 -394 -200 -330 -384 -739 -483 -1075 -58 -195 -109
-405 -126 -520 -3 -19 -7 -42 -9 -50 -2 -8 -7 -35 -10 -60 -3 -25 -8 -56 -10
-70 -3 -14 -7 -45 -10 -70 -3 -25 -7 -61 -9 -80 -15 -111 -21 -246 -21 -495 0
-314 8 -452 40 -665 2 -14 11 -68 20 -120 9 -52 18 -111 21 -130 3 -19 8 -38
10 -41 2 -3 6 -20 9 -38 26 -149 152 -564 222 -731 3 -8 7 -17 8 -20 1 -3 6
-16 12 -30 129 -304 274 -573 450 -834 82 -122 205 -291 222 -306 4 -3 18 -21
33 -40 15 -19 37 -47 50 -61 13 -15 43 -51 68 -80 61 -74 369 -382 455 -456
91 -78 185 -154 270 -221 163 -126 443 -307 625 -405 41 -22 98 -52 125 -67
181 -96 488 -225 720 -301 155 -52 445 -132 452 -126 2 2 -16 9 -39 16 -55 17
-208 76 -276 107 -29 13 -55 24 -58 24 -12 0 -278 133 -368 184 -54 31 -100
56 -101 56 -15 0 -283 179 -424 284 -87 64 -114 84 -145 111 -6 6 -41 35 -76
65 -287 242 -581 567 -789 872 -58 83 -181 276 -181 282 0 2 -24 46 -53 97
-49 86 -122 232 -159 319 -9 19 -26 58 -38 85 -38 85 -152 400 -166 460 -1 6
-10 37 -19 70 -32 116 -83 339 -89 388 -3 21 -7 41 -9 45 -3 4 -8 34 -11 67
-4 33 -9 67 -11 75 -2 8 -6 46 -10 83 -3 37 -8 78 -11 90 -22 116 -21 750 1
868 2 10 6 45 10 78 3 33 7 68 9 78 2 10 7 43 11 73 14 99 11 84 52 275 83
398 265 872 467 1220 19 33 43 74 52 90 59 105 279 421 339 489 6 6 28 33 50
61 142 178 368 405 595 597 408 345 961 650 1490 824 63 21 120 39 125 40 6 1
45 11 88 23 43 13 86 24 95 26 9 2 49 11 87 20 84 20 75 18 205 43 95 18 171
31 225 36 71 8 164 19 190 22 182 22 640 22 850 -1 22 -2 65 -6 95 -10 74 -7
130 -15 160 -20 14 -3 57 -10 95 -16 303 -47 699 -163 1023 -300 111 -47 382
-181 460 -227 29 -18 57 -32 62 -32 4 0 10 -3 12 -7 2 -5 19 -17 38 -27 66
-37 362 -236 380 -256 3 -3 46 -37 95 -75 50 -38 92 -72 95 -75 3 -3 41 -36
85 -75 136 -117 364 -351 470 -480 22 -27 52 -62 66 -79 210 -251 470 -682
612 -1016 75 -176 176 -463 202 -570 1 -8 12 -51 24 -95 11 -44 22 -91 25
-105 31 -159 47 -243 52 -280 3 -25 7 -52 9 -60 3 -8 7 -40 11 -70 3 -30 7
-66 9 -80 26 -199 27 -795 1 -937 -2 -10 -7 -49 -11 -87 -4 -38 -9 -80 -11
-93 -9 -55 -25 -145 -29 -170 -3 -16 -8 -44 -11 -63 -12 -68 -94 -383 -124
-472 -31 -93 -34 -131 -5 -62 75 180 142 360 198 539 36 115 116 465 131 575
49 352 51 381 51 750 0 281 -4 394 -19 510 -2 14 -7 54 -11 90 -4 36 -9 74
-11 85 -4 21 -11 62 -18 105 -4 23 -14 81 -21 120 -44 230 -161 620 -244 815
-5 11 -19 45 -31 75 -13 30 -62 136 -110 235 -169 348 -375 666 -624 965 -178
214 -457 490 -654 648 -20 16 -62 50 -92 74 -49 39 -254 185 -365 260 -178
120 -548 316 -777 412 -346 146 -800 279 -1123 330 -16 2 -50 8 -75 11 -25 4
-52 9 -60 10 -23 4 -99 14 -155 20 -27 3 -71 8 -97 11 -25 3 -75 8 -110 10
-71 6 -654 15 -659 10z"/>
<path d="M4897 7824 c-1 -1 -51 -4 -112 -8 -134 -8 -169 -12 -315 -36 -143
-25 -134 -23 -259 -55 -427 -108 -813 -297 -1176 -574 -175 -133 -390 -347
-525 -521 -39 -51 -39 -50 -81 -105 -44 -57 -168 -256 -222 -356 -87 -161
-222 -499 -241 -603 -3 -15 -10 -42 -15 -59 -6 -18 -12 -43 -15 -57 -2 -14 -9
-45 -15 -70 -12 -53 -18 -87 -27 -149 -4 -25 -8 -54 -10 -65 -2 -10 -6 -51
-10 -90 -3 -39 -8 -84 -10 -101 -5 -46 -4 -332 1 -405 15 -182 28 -276 60
-425 103 -477 314 -907 631 -1290 97 -117 267 -290 354 -361 19 -16 44 -37 55
-47 29 -27 193 -149 245 -183 25 -16 47 -31 50 -34 13 -14 206 -124 308 -174
224 -112 509 -215 697 -252 11 -2 83 -19 160 -38 77 -19 158 -37 180 -40 22
-4 65 -11 95 -16 114 -20 212 -25 450 -25 215 0 300 4 401 21 14 2 41 6 60 8
19 3 46 7 59 10 14 3 36 8 50 10 14 2 48 10 75 16 28 7 59 14 70 15 11 2 45
10 75 19 30 9 57 16 60 16 5 0 158 54 190 67 8 3 20 7 26 8 6 2 27 10 45 18
19 8 59 26 89 38 61 27 189 91 265 133 60 34 323 208 351 233 10 10 51 44 89
75 110 90 267 247 365 368 25 30 48 57 51 60 4 3 35 46 71 95 139 193 258 416
389 725 22 52 44 104 49 115 15 36 68 207 94 305 22 85 32 132 41 196 2 11 8
45 13 75 11 54 16 99 28 234 13 143 7 419 -11 570 -12 101 -18 135 -36 225
-188 951 -820 1751 -1714 2174 -148 70 -142 68 -243 106 -171 64 -433 135
-567 155 -22 4 -47 8 -55 10 -8 2 -41 7 -73 10 -32 4 -67 8 -79 10 -55 11
-471 27 -481 19z m398 -1258 c121 -8 156 -13 305 -42 179 -36 488 -161 655
-266 186 -117 451 -360 545 -498 8 -12 20 -28 25 -34 56 -60 198 -319 248
-452 61 -160 108 -355 123 -509 15 -158 7 -401 -17 -530 -5 -27 -12 -63 -15
-80 -10 -58 -56 -211 -89 -295 -55 -144 -174 -366 -241 -451 -16 -20 -40 -51
-54 -69 -109 -145 -299 -320 -476 -438 -193 -130 -494 -259 -689 -297 -203
-39 -295 -49 -470 -49 -419 -1 -747 95 -1137 329 -27 16 -142 98 -154 109 -7
6 -31 27 -55 46 -58 46 -203 191 -260 260 -216 260 -369 592 -430 930 -27 156
-32 453 -10 600 8 47 15 94 16 105 14 103 100 355 165 486 181 366 427 634
785 856 75 47 328 165 380 178 6 1 17 5 25 8 54 20 209 62 270 72 19 3 60 10
90 15 30 5 100 12 155 16 55 3 101 7 102 8 3 3 91 -1 208 -8z"/>
<path d="M9586 3025 c-9 -26 -7 -32 5 -12 6 10 9 21 6 23 -2 3 -7 -2 -11 -11z"/>
</g>
</svg>
